<svg xmlns="http://www.w3.org/2000/svg" width="40" height="40"><defs><clipPath id="a"><path d="M0 0h40v40H0z"/></clipPath></defs><path fill="#009fdf" d="M19.581 11.44a6.849 6.849 0 00-6.841 6.841 6.849 6.849 0 006.841 6.841 6.849 6.849 0 006.841-6.841 6.849 6.849 0 00-6.841-6.841"/><g clip-path="url(#a)"><path fill="#00a0de" d="M20 0c11.045 0 20 8.955 20 20 0 11.046-8.955 20.001-20 20.001C8.954 40.001 0 31.046 0 20 0 8.955 8.954 0 20 0zm11.537 28.013l-1.975.408c-.02.006-2.066.412-3.782-.726l-.158-.104a11.101 11.101 0 005.07-9.313c0-6.122-4.985-11.101-11.11-11.101-6.127 0-11.11 4.979-11.11 11.1 0 6.121 4.983 11.1 11.11 11.1.112 0 .223 0 .335-.004.614.241 1.894.808 3.507 1.877 1.856 1.228 4.997 1.497 5.129 1.508l.687.056z"/></g></svg>