<?xml version="1.0" encoding="UTF-8"?>
<svg width="25px" height="25px" viewBox="0 0 25 25" version="1.1" xmlns="http://www.w3.org/2000/svg" xmlns:xlink="http://www.w3.org/1999/xlink">
    <!-- Generator: sketchtool 63.1 (101010) - https://sketch.com -->
    <title>C101DAC9-92B3-40E5-948D-97B0559B1B34@2.00x</title>
    <desc>Created with sketchtool.</desc>
    <g id="Assets" stroke="none" stroke-width="1" fill="none" fill-rule="evenodd">
        <g id="arrow-right" fill="#000000">
            <g id="icon/control/arrow-left-1" transform="translate(3.000000, 3.000000)">
                <g id="arrow-left" transform="translate(2.666667, 5.333333)">
                    <path d="M5.10784246,0.1312992 C5.29306102,0.310520642 5.29792264,0.605957635 5.1187012,0.791176191 L1.566,4.461 L13.7277778,4.46111151 C13.9855107,4.46111151 14.1944444,4.68496913 14.1944444,4.96111151 C14.1944444,5.23725388 13.9855107,5.46111151 13.7277778,5.46111151 L1.631,5.461 L5.11890295,9.07014435 C5.29800917,9.25547433 5.29296381,9.55090825 5.10763382,9.73001446 C4.92230384,9.90912068 4.62686993,9.90407531 4.44776371,9.71874533 L0.30172159,5.42898217 C0.125390921,5.35758321 1.29383023e-10,5.17503662 1.29383023e-10,4.96111151 L0.000272343468,4.9437655 C-0.00389590952,4.82146628 0.0397827241,4.69784744 0.131298804,4.60326905 L4.44796547,0.142157935 C4.62718691,-0.0430606212 4.9226239,-0.0479222426 5.10784246,0.1312992 Z" fill-rule="nonzero"></path>
                </g>
            </g>
        </g>
    </g>
</svg>