<?xml version="1.0" encoding="UTF-8"?>
<svg width="25px" height="25px" viewBox="0 0 25 25" version="1.1" xmlns="http://www.w3.org/2000/svg" xmlns:xlink="http://www.w3.org/1999/xlink">
    <!-- Generator: sketchtool 63.1 (101010) - https://sketch.com -->
    <title>23E22E9A-B093-495F-BE78-46E28DA636D3@2.00x</title>
    <desc>Created with sketchtool.</desc>
    <g id="Assets" stroke="none" stroke-width="1" fill="none" fill-rule="evenodd">
        <g id="arrow-right" fill="#000000" fill-rule="nonzero">
            <g id="icon/control/arrow-right-1" transform="translate(3.000000, 3.000000)">
                <path d="M12.6742568,5.17549087 L16.9909234,9.63660198 C17.0826909,9.73144021 17.1263578,9.85547866 17.1219144,9.97810636 C17.1221302,9.98287631 17.1222222,9.98864886 17.1222222,9.99444444 C17.1222222,10.2075406 16.9978012,10.389501 16.8225481,10.4614801 L12.6744585,14.7520783 C12.4953523,14.9374083 12.1999184,14.9424536 12.0145884,14.7633474 C11.8292584,14.5842412 11.8242131,14.2888073 12.0033193,14.1034773 L15.4897778,10.4943329 L3.39444444,10.4944444 C3.13671156,10.4944444 2.92777778,10.2705868 2.92777778,9.99444444 C2.92777778,9.71830207 3.13671156,9.49444444 3.39444444,9.49444444 L15.5547778,9.49433294 L12.003521,5.82450913 C11.8242996,5.63929057 11.8291612,5.34385358 12.0143798,5.16463214 C12.1995983,4.98541069 12.4950353,4.99027232 12.6742568,5.17549087 Z" id="arrow-right"></path>
            </g>
        </g>
    </g>
</svg>