<svg xmlns="http://www.w3.org/2000/svg" width="12" height="11" viewBox="0 0 12 11">
    <path fill="#808487" d="M10.498 3.237c0 .542-.19 1.068-.534 1.486L5.798 9.385l-.42-.47-1.53-1.711-.002-.002L1.63 4.72a2.331 2.331 0 0 1-.531-1.484A2.421 2.421 0 0 1 3.547.846a2.472 2.472 0 0 1 1.96.95c.148.189.434.189.582 0a2.47 2.47 0 0 1 1.955-.95 2.423 2.423 0 0 1 2.454 2.391zm-4.7-2.22A3.208 3.208 0 0 0 3.549.108 3.159 3.159 0 0 0 .36 3.23c0 .719.248 1.412.703 1.963a19168.364 19168.364 0 0 0 4.46 4.992.369.369 0 0 0 .55 0l4.45-4.981a3.08 3.08 0 0 0 .713-1.97V3.23A3.16 3.16 0 0 0 8.04.108a3.203 3.203 0 0 0-2.243.91z"/>
</svg>