<svg xmlns="http://www.w3.org/2000/svg" width="11" height="11" viewBox="0 0 11 11">
    <path fill="#808487" d="M10.409 8.045a.83.83 0 0 1-.247.725l-1.337 1.326a1.103 1.103 0 0 1-.347.252c-.125.063-.26.105-.398.127l-.057.004H7.82a4.836 4.836 0 0 1-1.81-.422 9.189 9.189 0 0 1-1.468-.807 10.833 10.833 0 0 1-1.729-1.448c-.441-.428-.847-.89-1.214-1.382a9.91 9.91 0 0 1-.784-1.222 6.787 6.787 0 0 1-.45-1.043 5.518 5.518 0 0 1-.207-.81 2.816 2.816 0 0 1-.048-.568v-.201l.004-.056a1.31 1.31 0 0 1 .12-.387c.062-.135.15-.257.25-.35L1.826.449A.82.82 0 0 1 2.418.19a.747.747 0 0 1 .46.152 1.1 1.1 0 0 1 .278.31l1.087 2.041a.856.856 0 0 1 .09.605 1 1 0 0 1-.275.517l-.403.401c.03.098.07.193.12.285.101.19.217.37.348.545.2.27.421.525.674.77.235.249.49.478.763.684.172.13.354.247.551.354.085.048.175.086.238.105l.013.003.502-.51a.974.974 0 0 1 .657-.259.918.918 0 0 1 .485.111l1.944 1.15a.884.884 0 0 1 .371.399.37.37 0 0 1 .088.192zm-.754.155a.143.143 0 0 0-.076-.099L7.643 6.957a.197.197 0 0 0-.107-.018.243.243 0 0 0-.154.05l-.599.608a.539.539 0 0 1-.218.115l-.093.012h-.067l-.071-.007-.158-.032a1.925 1.925 0 0 1-.428-.179 5.08 5.08 0 0 1-.638-.41 6.957 6.957 0 0 1-.844-.755 6.892 6.892 0 0 1-.742-.849 4.877 4.877 0 0 1-.406-.636 2.24 2.24 0 0 1-.224-.608.665.665 0 0 1 .008-.23.566.566 0 0 1 .132-.235l.496-.497a.268.268 0 0 0 .073-.144.125.125 0 0 0-.015-.091L2.51 1.027a.336.336 0 0 0-.084-.09h-.004c-.02 0-.04.008-.062.032l-1.36 1.353a.59.59 0 0 0-.145.286v.175c-.002.142.01.284.037.429.042.239.102.475.18.705.107.32.241.63.4.927.213.393.455.77.724 1.13.343.46.723.892 1.144 1.3.491.508 1.033.963 1.62 1.358.425.287.876.535 1.35.743.484.217 1.006.339 1.522.357h.158a.654.654 0 0 0 .166-.058.404.404 0 0 0 .131-.097l1.355-1.345a.087.087 0 0 0 .015-.017.402.402 0 0 1-.003-.015z"/>
</svg>