<?xml version="1.0" encoding="UTF-8"?>
<svg width="25px" height="25px" viewBox="0 0 25 25" version="1.1" xmlns="http://www.w3.org/2000/svg" xmlns:xlink="http://www.w3.org/1999/xlink">
    <!-- Generator: sketchtool 63.1 (101010) - https://sketch.com -->
    <title>C14D93B4-2C67-4F88-8BF2-8AF6B7F89CA5@2.00x</title>
    <desc>Created with sketchtool.</desc>
    <g id="Assets" stroke="none" stroke-width="1" fill="none" fill-rule="evenodd">
        <g id="email" fill="#000000" fill-rule="nonzero">
            <g id="icon/general/email" transform="translate(3.000000, 3.000000)">
                <path d="M16.4102564,5.81538462 C16.6679893,5.81538462 16.8769231,6.0243184 16.8769231,6.28205128 L16.8769231,14.7435897 C16.8769231,15.0013226 16.6679893,15.2102564 16.4102564,15.2102564 L3.58974359,15.2102564 C3.33201071,15.2102564 3.12307692,15.0013226 3.12307692,14.7435897 L3.12307692,6.28205128 C3.12307692,6.0243184 3.33201071,5.81538462 3.58974359,5.81538462 L16.4102564,5.81538462 Z M15.9430769,7.20835898 L10.2819213,11.5005171 C10.1152176,11.6268932 9.88478237,11.6268932 9.71807867,11.5005171 L4.05607692,7.20835898 L4.05641026,14.2769231 L15.9435897,14.2769231 L15.9430769,7.20835898 Z M15.0040769,6.74835898 L4.99507692,6.74835898 L10,10.5430267 L15.0040769,6.74835898 Z" id="email"></path>
            </g>
        </g>
    </g>
</svg>