<?xml version="1.0" encoding="UTF-8"?>
<svg width="25px" height="25px" viewBox="0 0 25 25" version="1.1" xmlns="http://www.w3.org/2000/svg" xmlns:xlink="http://www.w3.org/1999/xlink">
    <!-- Generator: sketchtool 63.1 (101010) - https://sketch.com -->
    <title>E090575D-F3E9-426B-891F-89AA498B4E40@2.00x</title>
    <desc>Created with sketchtool.</desc>
    <g id="Assets" stroke="none" stroke-width="1" fill="none" fill-rule="evenodd">
        <g id="Facebook" fill="#000000" fill-rule="nonzero">
            <g id="icon/social/monotone/facebook" transform="translate(2.000000, 3.000000)">
                <path d="M8.71860694,4.02062745 C9.23881259,3.52528909 9.97871171,3.35798531 10.6767444,3.33713305 C11.4149598,3.33049529 12.1528838,3.33451033 12.8910992,3.33480174 C12.8940133,4.11355601 12.89424,4.89260169 12.8908078,5.67132358 C12.4137314,5.67048172 11.9362987,5.67248924 11.4592547,5.67048172 C11.1567026,5.65163697 10.8460881,5.8809471 10.7910757,6.18084407 C10.7838551,6.70192396 10.7884853,7.22329526 10.7887768,7.74440753 C11.4884608,7.74728929 12.1882096,7.74353329 12.8878937,7.74615601 C12.8366696,8.49997823 12.7431259,9.25036824 12.6334572,9.99784412 C12.0154013,10.00364 11.3969893,9.99726129 10.7789335,10.0010497 C10.773429,12.2243735 10.7818476,14.4476974 10.774627,16.6710212 C9.85660942,16.6747772 8.93804138,16.6692727 8.02005617,16.6736116 C8.00266849,14.4499963 8.02148086,12.2252478 8.01050428,10.0013411 C7.56263396,9.99667846 7.11450461,10.0045466 6.66666667,9.99758508 C6.66838277,9.25010921 6.66724949,8.50266571 6.66750853,7.75544887 C7.11505505,7.74997677 7.56292537,7.75661452 8.01050428,7.7522757 C8.02410358,7.0256197 7.9968726,6.29812185 8.02468641,5.57208106 C8.0695641,4.99708966 8.28870713,4.4177918 8.71860694,4.02062745" id="facebook"></path>
            </g>
        </g>
    </g>
</svg>