<svg xmlns="http://www.w3.org/2000/svg" width="13" height="13" viewBox="0 0 13 13">
    <path fill="#fff" d="M12.874 9.818c.05.34-.068.682-.309.907l-1.67 1.657a1.379 1.379 0 0 1-.434.316 1.694 1.694 0 0 1-.498.158l-.07.005h-.255a6.045 6.045 0 0 1-2.263-.527c-.641-.28-1.255-.617-1.834-1.008A13.543 13.543 0 0 1 3.38 9.515a14.34 14.34 0 0 1-1.518-1.727c-.363-.484-.69-.994-.98-1.529A8.483 8.483 0 0 1 .32 4.957 6.898 6.898 0 0 1 .06 3.944a3.52 3.52 0 0 1-.06-.71v-.252l.005-.069c.026-.174.08-.343.15-.485.078-.168.187-.32.312-.436L2.146.323c.193-.205.461-.322.74-.323a.934.934 0 0 1 .575.19c.13.098.242.219.347.387l1.36 2.552c.13.236.17.511.111.756a1.25 1.25 0 0 1-.343.646l-.504.502c.037.122.087.24.15.356a5.2 5.2 0 0 0 .434.68 7.8 7.8 0 0 0 .843.964c.295.31.614.597.954.855.216.162.443.308.69.442.105.06.218.108.297.132l.016.003.627-.637c.233-.213.538-.329.822-.324.203-.01.405.033.605.139L12.3 9.08c.206.114.368.29.465.499a.463.463 0 0 1 .11.24z"/>
</svg>