<svg xmlns="http://www.w3.org/2000/svg" width="12" height="16" viewBox="0 0 12 16">
    <path fill="#434a4f" d="M8.479 5.833c0-1.323-1.115-2.384-2.477-2.384-1.361 0-2.476 1.061-2.476 2.384 0 1.322 1.115 2.383 2.476 2.383 1.362 0 2.477-1.06 2.477-2.383zm-3.853 0c0-.703.61-1.284 1.376-1.284.766 0 1.377.581 1.377 1.284 0 .702-.61 1.283-1.377 1.283-.766 0-1.376-.58-1.376-1.283zm6.204.391a4.442 4.442 0 0 1-.687 2.36L6.459 14.06a.55.55 0 0 1-.913 0L1.853 8.572a4.43 4.43 0 0 1-.678-2.354A4.723 4.723 0 0 1 5.99 1.606a4.73 4.73 0 0 1 4.84 4.618zM5.991.506C2.8.443.143 2.994.075 6.207a5.55 5.55 0 0 0 .857 2.966l3.701 5.5a1.65 1.65 0 0 0 2.738 0l3.693-5.487c.567-.897.864-1.92.866-2.966v-.013a5.825 5.825 0 0 0-5.938-5.7z"/>
</svg>