<?xml version="1.0" encoding="UTF-8"?>
<svg width="25px" height="25px" viewBox="0 0 25 25" version="1.1" xmlns="http://www.w3.org/2000/svg" xmlns:xlink="http://www.w3.org/1999/xlink">
    <!-- Generator: sketchtool 63.1 (101010) - https://sketch.com -->
    <title>B1781097-AC83-4529-807E-F5C116533B25@2.00x</title>
    <desc>Created with sketchtool.</desc>
    <g id="Assets" stroke="none" stroke-width="1" fill="none" fill-rule="evenodd">
        <g id="Pinterest" fill="#000000" fill-rule="nonzero">
            <g id="icon/social/monotone/pinterest" transform="translate(2.000000, 3.000000)">
                <path d="M10.0385444,2.66666667 C6.02385988,2.66666667 4,5.5365179 4,7.9293274 C4,9.37818784 4.54998165,10.6674311 5.73017331,11.1477304 C5.92366521,11.2266341 6.09719077,11.1506259 6.1530965,10.9370792 C6.19230311,10.7890442 6.28451125,10.4162422 6.32589601,10.2609684 C6.38252779,10.0495933 6.36038331,9.97539487 6.20428291,9.7915275 C5.86376621,9.39121782 5.64631472,8.8729145 5.64631472,8.13925472 C5.64631472,6.01030214 7.24434722,4.10430686 9.80657199,4.10430686 C12.0754732,4.10430686 13.3224613,5.48693162 13.3224613,7.33284426 C13.3224613,9.76221006 12.2442795,11.8122589 10.6437058,11.8122589 C9.75937884,11.8122589 9.09794876,11.0829425 9.30995489,10.1893036 C9.56407183,9.12193174 10.0559696,7.97022703 10.0559696,7.20001093 C10.0559696,6.51050827 9.68459586,5.93501786 8.91643666,5.93501786 C8.01286944,5.93501786 7.28682105,6.86702277 7.28682105,8.11572838 C7.28682105,8.91091859 7.55654803,9.44876686 7.55654803,9.44876686 C7.55654803,9.44876686 6.63156238,13.3552247 6.46929057,14.0392982 C6.14656206,15.4020161 6.42100835,17.0720241 6.4442419,17.2406898 C6.4576738,17.3405863 6.58654738,17.3644746 6.64499428,17.2888283 C6.72812682,17.1806072 7.80449356,15.8555315 8.17042194,14.5322655 C8.27388384,14.1572919 8.76469255,12.21655 8.76469255,12.21655 C9.05837912,12.7746671 9.91656832,13.2665485 10.8288481,13.2665485 C13.5449951,13.2665485 15.387706,10.7977309 15.387706,7.49282335 C15.387706,4.99396436 13.2651035,2.66666667 10.0385444,2.66666667" id="pinterest"></path>
            </g>
        </g>
    </g>
</svg>