<svg xmlns="http://www.w3.org/2000/svg" width="12" height="16" viewBox="0 0 12 16">
    <path fill="#fff" d="M6.039.667C2.024.667 0 3.537 0 5.929c0 1.45.55 2.738 1.73 3.219.194.079.367.003.423-.21.04-.149.132-.522.173-.677.057-.211.034-.286-.122-.47-.34-.4-.558-.918-.558-1.652 0-2.129 1.598-4.035 4.16-4.035 2.27 0 3.516 1.383 3.516 3.229 0 2.43-1.078 4.48-2.678 4.48-.885 0-1.546-.73-1.334-1.624.254-1.067.746-2.219.746-2.989 0-.69-.371-1.265-1.14-1.265-.903 0-1.63.932-1.63 2.18 0 .796.27 1.334.27 1.334l-1.087 4.59c-.322 1.363-.048 3.033-.025 3.202.014.1.143.124.201.048.083-.108 1.16-1.433 1.525-2.757.104-.375.595-2.315.595-2.315.293.558 1.152 1.05 2.064 1.05 2.716 0 4.559-2.47 4.559-5.774 0-2.499-2.123-4.826-5.35-4.826"/>
</svg>