<svg xmlns="http://www.w3.org/2000/svg" width="16" height="11" viewBox="0 0 16 11">
    <path fill="#fff" d="M6.485 3.606l3.475 2.32-3.474 1.8zm8.119-2.17C14.046.852 13.42.85 13.134.815 11.082.667 8.004.667 8.004.667h-.007s-3.079 0-5.131.148c-.287.034-.912.037-1.47.621-.44.445-.583 1.456-.583 1.456S.667 4.08.667 5.266v1.113c0 1.186.146 2.373.146 2.373s.143 1.011.583 1.456c.558.584 1.291.566 1.617.627 1.174.112 4.987.147 4.987.147s3.082-.004 5.134-.153c.287-.034.912-.037 1.47-.621.44-.445.583-1.456.583-1.456s.146-1.187.146-2.374V5.267c0-1.187-.146-2.374-.146-2.374s-.143-1.01-.583-1.456z"/>
</svg>