<svg xmlns="http://www.w3.org/2000/svg" width="7" height="14" viewBox="0 0 7 14">
    <path fill="#fff" d="M2.719 1.02c.52-.495 1.26-.662 1.958-.683C5.415.33 6.153.335 6.89.335c.003.779.003 1.558 0 2.336-.477 0-.955.002-1.432 0-.302-.02-.613.21-.668.51-.007.52-.003 1.042-.002 1.563.7.003 1.4 0 2.099.002a29.133 29.133 0 0 1-.255 2.252c-.618.006-1.236 0-1.854.003-.006 2.223.003 4.447-.004 6.67-.918.004-1.837-.002-2.755.003-.017-2.224.001-4.449-.01-6.673-.447-.004-.895.004-1.343-.003V4.755c.448-.005.896.002 1.344-.003.013-.726-.014-1.454.014-2.18.045-.575.264-1.154.694-1.551"/>
</svg>