<svg xmlns="http://www.w3.org/2000/svg" width="14" height="14" viewBox="0 0 14 14">
    <path fill="#fff" d="M10.535 2.663a.798.798 0 1 1 0 1.596.798.798 0 0 1 0-1.596m-3.55 6.565a2.217 2.217 0 1 0 0-4.434 2.217 2.217 0 0 0 0 4.434m0-5.632a3.416 3.416 0 1 1 0 6.831 3.416 3.416 0 0 1 0-6.831m0-3.236C8.79.36 9.018.368 9.727.4c.708.032 1.192.145 1.615.31a3.26 3.26 0 0 1 1.178.766c.338.333.6.735.767 1.179.164.423.277.906.31 1.614.032.71.04.936.04 2.742 0 1.807-.008 2.033-.04 2.743-.033.708-.146 1.191-.31 1.614a3.401 3.401 0 0 1-1.945 1.946c-.423.164-.907.276-1.615.309-.71.032-.936.04-2.742.04-1.807 0-2.033-.008-2.743-.04-.707-.033-1.191-.145-1.614-.31a3.26 3.26 0 0 1-1.178-.767 3.26 3.26 0 0 1-.767-1.178c-.165-.423-.277-.906-.31-1.614-.032-.71-.04-.936-.04-2.743 0-1.806.008-2.033.04-2.742.033-.708.145-1.191.31-1.615a3.26 3.26 0 0 1 .767-1.178A3.26 3.26 0 0 1 2.628.71C3.05.545 3.534.432 4.242.4c.71-.032.936-.04 2.743-.04zm0 1.198c-1.776 0-1.987.007-2.688.04-.649.029-1 .137-1.235.228a2.06 2.06 0 0 0-.765.498 2.06 2.06 0 0 0-.497.765c-.092.234-.2.586-.23 1.235-.031.701-.038.911-.038 2.687 0 1.776.007 1.987.039 2.688.03.649.137 1 .229 1.235.106.29.276.55.497.765.215.221.476.391.765.498.234.09.586.2 1.235.229.701.032.912.038 2.688.038 1.776 0 1.986-.006 2.687-.038.649-.03 1.001-.138 1.236-.23a2.203 2.203 0 0 0 1.262-1.262c.091-.234.2-.586.229-1.235.032-.701.039-.911.039-2.688 0-1.776-.007-1.986-.04-2.687-.029-.649-.137-1.001-.228-1.235a2.06 2.06 0 0 0-.498-.765 2.06 2.06 0 0 0-.764-.498c-.235-.09-.587-.2-1.235-.229-.702-.032-.912-.039-2.688-.039z"/>
</svg>