<?xml version="1.0" encoding="UTF-8"?>
<svg width="25px" height="25px" viewBox="0 0 25 25" version="1.1" xmlns="http://www.w3.org/2000/svg" xmlns:xlink="http://www.w3.org/1999/xlink">
    <!-- Generator: sketchtool 63.1 (101010) - https://sketch.com -->
    <title>1C836033-E806-404E-8901-AF7DB6BAE8FA@2.00x</title>
    <desc>Created with sketchtool.</desc>
    <g id="Assets" stroke="none" stroke-width="1" fill="none" fill-rule="evenodd">
        <g id="Twitter" fill="#000000" fill-rule="nonzero">
            <g id="icon/social/monotone/twitter" transform="translate(3.000000, 3.000000)">
                <path d="M7.52657718,15.502774 C12.5583893,15.502774 15.3098434,11.3341834 15.3098434,7.71946309 C15.3098434,7.60107383 15.3074273,7.48322148 15.3021029,7.3658613 C15.8362864,6.97973154 16.3005369,6.49785235 16.6666667,5.94930649 C16.1765548,6.16720358 15.6490828,6.31387025 15.0957494,6.38 C15.6605369,6.04134228 16.0941387,5.50559284 16.2987025,4.86693512 C15.7701119,5.18026846 15.1847875,5.40796421 14.561566,5.53091723 C14.0623714,4.99919463 13.3516779,4.66666667 12.5647875,4.66666667 C11.054094,4.66666667 9.82899329,5.8917226 9.82899329,7.40187919 C9.82899329,7.61655481 9.85302013,7.82532438 9.89995526,8.02559284 C7.62630872,7.91123043 5.61029083,6.82268456 4.2612528,5.16742729 C4.02630872,5.5717226 3.89082774,6.04134228 3.89082774,6.54237136 C3.89082774,7.49145414 4.37373602,8.32935123 5.10814318,8.81946309 C4.65932886,8.80559284 4.23776286,8.68241611 3.869217,8.47731544 C3.86881432,8.48881432 3.86881432,8.5 3.86881432,8.51230425 C3.86881432,9.83709172 4.81176734,10.9432662 6.06348993,11.193915 C5.83364653,11.2565996 5.59176734,11.2902013 5.34214765,11.2902013 C5.1661745,11.2902013 4.99472036,11.2728412 4.82800895,11.2408501 C5.17628635,12.3277852 6.1861745,13.1187472 7.38353468,13.1408501 C6.44724832,13.8747204 5.26778523,14.3118121 3.9858613,14.3118121 C3.76536913,14.3118121 3.54747204,14.2992841 3.33333333,14.273915 C4.54402685,15.0499329 5.98165548,15.502774 7.52671141,15.502774" id="twitter"></path>
            </g>
        </g>
    </g>
</svg>