<svg xmlns="http://www.w3.org/2000/svg" width="40" height="40"><defs><clipPath id="a"><path d="M0 0h40v40H0z"/></clipPath></defs><g clip-path="url(#a)"><path fill="#a3d038" d="M40 20c0 11.046-8.954 20-20 20S0 31.046 0 20 8.954 0 20 0s20 8.954 20 20"/></g><g><path fill="#fff" d="M26.996 28.437l-1.843-6.425a8.002 8.002 0 01-4.064 1.929l1.64 5.718 1.617-1.371a.698.698 0 01.551-.157zm-8.427-4.496a8.013 8.013 0 01-4.065-1.929l-1.84 6.425 2.096-.306a.695.695 0 01.551.157l1.617 1.371zm1.26-14.548a6.634 6.634 0 00-6.627 6.628 6.634 6.634 0 006.627 6.627 6.636 6.636 0 006.628-6.627 6.636 6.636 0 00-6.628-6.628zm8.801 19.696a.695.695 0 01-.769.881l-2.854-.416-2.2 1.865a.694.694 0 01-1.119-.34l-1.859-6.482-1.859 6.482a.696.696 0 01-1.12.34l-2.199-1.865-2.855.416a.696.696 0 01-.769-.881l2.374-8.278a7.981 7.981 0 01-1.592-4.79C11.81 11.598 15.407 8 19.83 8s8.02 3.598 8.02 8.021a7.98 7.98 0 01-1.592 4.79zm-8.8-15.716a2.65 2.65 0 00-2.646 2.647 2.65 2.65 0 002.646 2.647 2.65 2.65 0 002.647-2.647 2.65 2.65 0 00-2.647-2.647m0 6.687a4.044 4.044 0 01-4.039-4.04 4.044 4.044 0 014.039-4.04 4.044 4.044 0 014.039 4.04 4.044 4.044 0 01-4.039 4.04"/></g></svg>