<svg xmlns="http://www.w3.org/2000/svg" width="40" height="40"><path transform="rotate(-21 19.5 20)" fill="#f13e4b" d="M27.607 37.478c3.676-3.197 5.658-4.568 6.717-5.16a59.282 59.282 0 01-1.184-.571c-5.041 4.27-7.92 3.372-7.92 3.372 2.846-2.475 4.628-3.803 5.738-4.516-.43-.238-.846-.481-1.261-.726-5.415 4.054-8.168 2.87-8.168 2.87 3.88-2.727 5.67-3.621 6.478-3.907-.47-.3-.932-.601-1.38-.908-4.958 3.395-7.403 2.259-7.403 2.259 3.2-2.135 4.906-3.022 5.81-3.39a49.557 49.557 0 01-1.223-.928c-4.825 3.079-7.124 1.924-7.124 1.924 3.14-1.964 4.804-2.768 5.684-3.095a57.962 57.962 0 01-.954-.828c-4.646 2.468-6.668 1.24-6.668 1.24 2.964-1.54 4.546-2.161 5.389-2.406-.221-.21-.451-.42-.664-.627-4.46 2-6.253.74-6.253.74 2.859-1.242 4.35-1.707 5.13-1.871a56.268 56.268 0 01-.804-.86c-4.317 1.52-5.848.197-5.848.197 3.082-.972 4.402-1.172 4.96-1.184-.17-.193-.343-.388-.505-.58-4.496.564-5.692-1.038-5.692-1.038 2.717-.243 4.058-.212 4.725-.132-.227-.284-.44-.56-.65-.835-3.654.207-4.541-1.142-4.541-1.142 2.208-.043 3.282.058 3.808.16a46.856 46.856 0 01-.561-.785c-3.517-.512-4-1.793-4-1.793 1.802.333 2.768.59 3.293.773-.22-.312-.44-.624-.638-.926-2.663-.714-2.914-1.743-2.914-1.743 1.27.395 1.964.668 2.363.855-.142-.235-.291-.473-.418-.701-1.708-.94-1.708-1.688-1.708-1.688.595.358.979.615 1.244.807-.024-.048-.054-.1-.077-.147l-.016-.007-.54-1.312a27.248 27.248 0 01-.227-.748s1.195 2.044 1.354 2.338c-.012-.325-.01-.825.029-1.597 0 0 .488.483.357 2.295.16.284.339.588.535.912-.04-.318-.067-.977.003-2.393 0 0 .65.617.424 3.04l-.07-.068c.26.417.54.852.854 1.317-.06-.26-.14-1.013-.031-3.227 0 0 .815.774.53 3.815l-.218-.216c.313.419.635.842.984 1.272-.064-.437-.121-1.44-.007-3.745 0 0 .96.927.65 4.504.309.365.608.727.94 1.096-.075-.446-.154-1.553-.02-4.288 0 0 1.083 1.035.734 5.057.25.266.508.532.77.799-.072-.531-.095-1.754.25-4.576 0 0 1.479 1.163.722 5.54.377.364.775.726 1.173 1.088-.107-.601-.197-2.005.037-5.292 0 0 1.668 1.233 1.08 6.277.318.275.63.55.96.823-.142-.514-.321-1.968-.038-6.047 0 0 1.969 1.383 1.278 7.034.363.28.732.558 1.107.834-.138-.823-.242-2.63.032-6.598 0 0 2.165 1.534 1.513 7.693.492.336.992.666 1.503.99-.208-.653-.508-2.512-.34-7.773 0 0 2.544 1.659 1.993 8.78.338.198.673.398 1.018.589-.127-1.134-.16-3.45.307-8.201 0 0 2.568 1.925 1.722 9.26.249.125.965.34.965.34l.53.16c-.221-.607-.583-2.588-.24-9.001 0 0 2.845 1.945 2.06 10.002.369.15.732.31 1.096.469-.193-.753-.406-2.973.314-9.46 0 0 1.708 1.342 1.895 5.827 1.752-4.273 2.055-9.163.483-13.888C35.356 3.42 24.032-2.25 13.552 1.239 3.07 4.726-2.6 16.049.889 26.529c3.487 10.482 14.81 16.15 25.29 12.664a20.012 20.012 0 004.149-1.95c-1.765.527-2.721.235-2.721.235"/></svg>