<svg xmlns="http://www.w3.org/2000/svg" xmlns:xlink="http://www.w3.org/1999/xlink" width="41" height="29" viewBox="0 0 41 29"><svg width="41" height="29" viewBox="-2 -2 41 29" id="icon-quote" y="0"><path fill="#808487" d="M10.161 0c-3.333 2.294-5.86 4.848-7.58 7.661C.86 10.475 0 13.28 0 16.075c0 2.688.762 4.848 2.285 6.479C3.808 24.184 5.77 25 8.172 25a8.085 8.085 0 0 0 3.925-.995 7.246 7.246 0 0 0 2.85-2.742 7.38 7.38 0 0 0 1.02-3.79c0-2.186-.707-3.943-2.123-5.269-1.416-1.326-3.306-1.989-5.672-1.989.645-2.545 2.294-4.82 4.946-6.828zm20.317 0c-3.26 2.258-5.758 4.803-7.496 7.634-1.737 2.832-2.606 5.646-2.606 8.441 0 2.688.762 4.848 2.284 6.479C24.182 24.184 26.143 25 28.543 25c1.433 0 2.75-.34 3.95-1.022 1.2-.68 2.14-1.594 2.82-2.741a7.24 7.24 0 0 0 1.021-3.764c0-1.398-.304-2.652-.913-3.763a6.306 6.306 0 0 0-2.633-2.581c-1.146-.61-2.525-.914-4.137-.914.609-2.473 2.22-4.749 4.835-6.828z"></path></svg></svg>