<svg xmlns="http://www.w3.org/2000/svg" width="208" height="218">
    <defs>
        <filter id="tooltip-color" width="228" height="239" x="-10" y="-11" filterUnits="userSpaceOnUse">
            <feOffset dy="1" in="SourceGraphic" result="FeOffset1023Out"/><feGaussianBlur in="FeOffset1023Out" result="FeGaussianBlur1024Out" stdDeviation="0.8 0.8"/>
        </filter>
    </defs>
    <g filter="url(#tooltip-color)">
        <path fill="#808487" fill-opacity=".37" d="M2 5a4 4 0 014-4h196a4 4 0 014 4v195.744a4 4 0 01-4 4h-89.282l-10.179 10.265-10.178-10.265H6a4 4 0 01-4-4z"/>
    </g>
    <path fill="#000000" d="M2 5a4 4 0 014-4h196a4 4 0 014 4v195.744a4 4 0 01-4 4h-89.282l-10.179 10.265-10.178-10.265H6a4 4 0 01-4-4z"/>
</svg>